<svg width="35" height="35" viewBox="0 0 35 35" fill="none" xmlns="http://www.w3.org/2000/svg">
<path d="M29.2396 16.0417H5.76042C4.99527 16.0417 4.375 16.6619 4.375 17.4271V17.5729C4.375 18.3381 4.99527 18.9583 5.76042 18.9583H29.2396C30.0047 18.9583 30.625 18.3381 30.625 17.5729V17.4271C30.625 16.6619 30.0047 16.0417 29.2396 16.0417Z" fill="#222222" fill-opacity="0.73"/>
<path d="M29.2396 23.3333H5.76042C4.99527 23.3333 4.375 23.9536 4.375 24.7187V24.8646C4.375 25.6297 4.99527 26.25 5.76042 26.25H29.2396C30.0047 26.25 30.625 25.6297 30.625 24.8646V24.7187C30.625 23.9536 30.0047 23.3333 29.2396 23.3333Z" fill="#222222" fill-opacity="0.73"/>
<path d="M29.2396 8.75H5.76042C4.99527 8.75 4.375 9.37027 4.375 10.1354V10.2813C4.375 11.0464 4.99527 11.6667 5.76042 11.6667H29.2396C30.0047 11.6667 30.625 11.0464 30.625 10.2813V10.1354C30.625 9.37027 30.0047 8.75 29.2396 8.75Z" fill="#222222" fill-opacity="0.73"/>
</svg>
